<svg xmlns="http://www.w3.org/2000/svg" xmlns:xlink="http://www.w3.org/1999/xlink" version="1.1" x="0px" y="0px" width="100px" height="399.643px" viewBox="0 0 100 399.643" enable-background="new 0 0 100 399.643" xml:space="preserve">
<g id="roto">
	<defs>
		<rect id="SVGID_1_" x="6.4" y="113.5" width="87.1" height="237.5"/>
	</defs>
	<clipPath id="SVGID_2_">
		<use xlink:href="#SVGID_1_" overflow="visible"/>
	</clipPath>
	<g clip-path="url(#SVGID_2_)">
		<polygon fill="#FFFFFF" points="52.2,588.5 52.2,588.5 93.6,588.5 93.6,560.3 93.6,560.3"/>
		<polygon fill="#FF1D25" points="6.4,588.4 6.4,588.5 6.4,588.5 6.5,588.5 52.2,588.5 93.6,560.3 93.6,529.2 93.6,529.1"/>
		<polygon fill="#FFFFFF" points="6.4,560.3 6.4,560.3 6.4,588.4 93.6,529.1 93.6,500.9 93.6,500.9"/>
		<polygon fill="#3FA9F5" points="6.4,560.3 93.6,500.9 93.6,469.8 6.4,529.1"/>
		<polygon fill="#FFFFFF" points="6.4,500.9 6.4,500.9 6.4,529.1 6.4,529.1 93.6,469.8 93.6,469.7 93.6,441.6 93.6,441.5"/>
		<polygon fill="#FF1D25" points="6.4,500.9 93.6,441.5 93.6,410.4 6.4,469.8"/>
		<polygon fill="#FFFFFF" points="6.4,441.5 6.4,441.5 6.4,469.7 6.4,469.8 93.6,410.4 93.6,410.4 93.6,382.2 93.6,382.2"/>
		<polygon fill="#3FA9F5" points="6.4,441.5 93.6,382.2 93.6,351.1 6.4,410.4"/>
		<polygon fill="#FFFFFF" points="52.2,351 52.2,351 6.4,382.2 6.4,382.2 6.4,410.4 6.4,410.4 93.6,351.1 93.6,351 93.6,351"/>
		<polygon fill="#FF1D25" points="6.4,351 6.4,382.2 52.2,351"/>
	</g>
	<g clip-path="url(#SVGID_2_)">
		<polygon fill="#FFFFFF" points="52.2,350.9 52.2,350.9 93.6,350.9 93.6,322.8 93.6,322.7"/>
		<polygon fill="#FF1D25" points="6.4,350.9 6.4,350.9 6.4,351 6.5,350.9 52.2,350.9 93.6,322.7 93.6,291.6 93.6,291.6"/>
		<polygon fill="#FFFFFF" points="6.4,322.7 6.4,322.8 6.4,350.9 93.6,291.6 93.6,263.4 93.6,263.4"/>
		<polygon fill="#3FA9F5" points="6.4,322.7 93.6,263.4 93.6,232.3 6.4,291.6"/>
		<polygon fill="#FFFFFF" points="6.4,263.4 6.4,263.4 6.4,291.6 6.4,291.6 93.6,232.3 93.6,232.2 93.6,204.1 93.6,204"/>
		<polygon fill="#FF1D25" points="6.4,263.4 93.6,204 93.6,172.9 6.4,232.3"/>
		<polygon fill="#FFFFFF" points="6.4,204 6.4,204 6.4,232.2 6.4,232.3 93.6,172.9 93.6,172.9 93.6,144.7 93.6,144.7"/>
		<polygon fill="#3FA9F5" points="6.4,204 93.6,144.7 93.6,113.5 6.4,172.9"/>
		<polygon fill="#FFFFFF" points="52.2,113.5 52.2,113.5 6.4,144.6 6.4,144.7 6.4,172.8 6.4,172.9 93.6,113.5 93.6,113.5 93.6,113.5"/>
		<polygon fill="#FF1D25" points="6.4,113.5 6.4,144.6 52.2,113.5"/>
	</g>
</g>
<g id="panel">
	<path fill="#CCCCCC" d="M95 83.48H83.083c-2.153-0.55-12.044-3.611-13.971-13.717C80.118 63.2 87.5 51.2 87.5 37.5 C87.5 16.8 70.7 0 50 0S12.5 16.8 12.5 37.5c0 13.7 7.4 25.7 18.4 32.263C28.961 79.9 19.1 82.9 16.9 83.48H5 c-2.761 0-5 2.239-5 5v20c0 2.8 2.2 5 5 5h90c2.761 0 5-2.239 5-5v-20C100 85.7 97.8 83.5 95 83.48z"/>
	<path fill="#CCCCCC" d="M95 350.993H5c-2.761 0-5 2.239-5 5v20c0 2.8 2.2 5 5 5h7.505c0.108 10.3 16.9 18.6 37.5 18.6 s37.387-8.341 37.495-18.65H95c2.761 0 5-2.239 5-5v-20C100 353.2 97.8 351 95 350.993z"/>
</g>
</svg>
