<?xml version="1.0" encoding="utf-8"?>
<!-- Generator: Adobe Illustrator 17.0.0, SVG Export Plug-In . SVG Version: 6.00 Build 0)  -->
<!DOCTYPE svg PUBLIC "-//W3C//DTD SVG 1.1//EN" "http://www.w3.org/Graphics/SVG/1.1/DTD/svg11.dtd">
<svg version="1.1" xmlns="http://www.w3.org/2000/svg" xmlns:xlink="http://www.w3.org/1999/xlink" x="0px" y="0px" width="100px"
	 height="399.643px" viewBox="0 0 100 399.643" enable-background="new 0 0 100 399.643" xml:space="preserve">
<g id="roto">
	<defs>
		<rect id="SVGID_1_" x="6.437" y="113.48" width="87.126" height="237.468"/>
	</defs>
	<clipPath id="SVGID_2_">
		<use xlink:href="#SVGID_1_"  overflow="visible"/>
	</clipPath>
	<g clip-path="url(#SVGID_2_)">
		<polygon fill="#FFFFFF" points="52.162,588.461 52.19,588.461 93.563,588.461 93.563,560.279 93.563,560.26 		"/>
		<polygon fill="#FF1D25" points="6.437,588.442 6.437,588.461 6.437,588.505 6.502,588.461 52.162,588.461 93.563,560.26 
			93.563,529.157 93.563,529.094 		"/>
		<polygon fill="#FFFFFF" points="6.437,560.26 6.437,560.279 6.437,588.442 93.563,529.094 93.563,500.931 93.563,500.912 		"/>
		<polygon fill="#3FA9F5" points="6.437,560.26 93.563,500.912 93.563,469.79 6.437,529.138 		"/>
		<polygon fill="#FFFFFF" points="6.437,500.893 6.437,500.912 6.437,529.094 6.437,529.138 93.563,469.79 93.563,469.746 
			93.563,441.563 93.563,441.545 		"/>
		<polygon fill="#FF1D25" points="6.437,500.893 93.563,441.545 93.563,410.423 6.437,469.771 		"/>
		<polygon fill="#FFFFFF" points="6.437,441.526 6.437,441.545 6.437,469.727 6.437,469.771 93.563,410.423 93.563,410.379 
			93.563,382.196 93.563,382.177 		"/>
		<polygon fill="#3FA9F5" points="6.437,441.526 93.563,382.177 93.563,351.053 6.437,410.401 		"/>
		<polygon fill="#FFFFFF" points="52.218,350.993 52.185,350.993 6.437,382.155 6.437,382.177 6.437,410.36 6.437,410.401 
			93.563,351.053 93.563,351.012 93.563,350.993 		"/>
		<polygon fill="#FF1D25" points="6.437,350.993 6.437,382.155 52.185,350.993 		"/>
	</g>
	<g clip-path="url(#SVGID_2_)">
		<polygon fill="#FFFFFF" points="52.162,350.949 52.19,350.949 93.563,350.949 93.563,322.766 93.563,322.747 		"/>
		<polygon fill="#FF1D25" points="6.437,350.93 6.437,350.949 6.437,350.993 6.502,350.949 52.162,350.949 93.563,322.747 
			93.563,291.645 93.563,291.581 		"/>
		<polygon fill="#FFFFFF" points="6.437,322.747 6.437,322.766 6.437,350.93 93.563,291.581 93.563,263.418 93.563,263.399 		"/>
		<polygon fill="#3FA9F5" points="6.437,322.747 93.563,263.399 93.563,232.277 6.437,291.626 		"/>
		<polygon fill="#FFFFFF" points="6.437,263.38 6.437,263.399 6.437,291.581 6.437,291.626 93.563,232.277 93.563,232.233 
			93.563,204.051 93.563,204.032 		"/>
		<polygon fill="#FF1D25" points="6.437,263.38 93.563,204.032 93.563,172.91 6.437,232.259 		"/>
		<polygon fill="#FFFFFF" points="6.437,204.013 6.437,204.032 6.437,232.214 6.437,232.259 93.563,172.91 93.563,172.866 
			93.563,144.684 93.563,144.665 		"/>
		<polygon fill="#3FA9F5" points="6.437,204.013 93.563,144.665 93.563,113.54 6.437,172.888 		"/>
		<polygon fill="#FFFFFF" points="52.218,113.48 52.185,113.48 6.437,144.643 6.437,144.665 6.437,172.847 6.437,172.888 
			93.563,113.54 93.563,113.499 93.563,113.48 		"/>
		<polygon fill="#FF1D25" points="6.437,113.48 6.437,144.643 52.185,113.48 		"/>
	</g>
</g>
<g id="panel">
	<path fill="#CCCCCC" d="M95,83.48H83.083c-2.153-0.55-12.044-3.611-13.971-13.717C80.118,63.228,87.5,51.229,87.5,37.5
		C87.5,16.789,70.711,0,50,0S12.5,16.789,12.5,37.5c0,13.729,7.382,25.728,18.388,32.263C28.961,79.869,19.07,82.93,16.917,83.48H5
		c-2.761,0-5,2.239-5,5v20c0,2.761,2.239,5,5,5h90c2.761,0,5-2.239,5-5v-20C100,85.719,97.761,83.48,95,83.48z"/>
	<path fill="#CCCCCC" d="M95,350.993H5c-2.761,0-5,2.239-5,5v20c0,2.761,2.239,5,5,5h7.505c0.108,10.309,16.851,18.65,37.495,18.65
		s37.387-8.341,37.495-18.65H95c2.761,0,5-2.239,5-5v-20C100,353.231,97.761,350.993,95,350.993z"/>
</g>
</svg>
